# xmcd
#
# Track frame offsets:
#	150
#	20651
#	36646
#	61895
#	81010
#	102850
#	134395
#	161144
#	176469
#	195314
#	223172
#	244463
#	266310
#	281560
#
# Disc length: 4184 seconds
#
# Revision: 0
# Processed by: cddbd v1.5.2PL0 Copyright (c) Steve Scherf et al.
# Submitted via: dBpowerAMP V4.0
#
DISCID=cb10560e
DTITLE=Key Frances Band - friday night road trip
DYEAR=2005
DGENRE=Blues
TTITLE0=hambone
TTITLE1=louisiana bound
TTITLE2=come see about me
TTITLE3=miss maybelle
TTITLE4=best intentions
TTITLE5=howlin' at the moon
TTITLE6=detroit iron
TTITLE7=mystified (a)
TTITLE8=mystified (b)
TTITLE9=trains
TTITLE10=american hero
TTITLE11=long black cadillac
TTITLE12=who do you love
TTITLE13=kings of the world
EXTD=live album
EXTT0=
EXTT1=
EXTT2=
EXTT3=
EXTT4=
EXTT5=
EXTT6=
EXTT7=
EXTT8=
EXTT9=
EXTT10=
EXTT11=
EXTT12=
EXTT13=
PLAYORDER=
